<mxfile host="app.diagrams.net" agent="Mozilla/5.0 (Windows NT 10.0; Win64; x64) AppleWebKit/537.36 (KHTML, like Gecko) Chrome/131.0.0.0 Safari/537.36" version="26.0.10">
  <diagram name="Page-1" id="8tY9U2GfMw8gX_8EbSLn">
    <mxGraphModel dx="1050" dy="557" grid="1" gridSize="10" guides="1" tooltips="1" connect="1" arrows="1" fold="1" page="1" pageScale="1" pageWidth="827" pageHeight="1169" math="0" shadow="0">
      <root>
        <mxCell id="0" />
        <mxCell id="1" parent="0" />
        <mxCell id="oqaYQmrftcsxYt509nSq-1" value="FIM" style="strokeWidth=2;html=1;shape=mxgraph.flowchart.start_1;whiteSpace=wrap;" vertex="1" parent="1">
          <mxGeometry x="364" y="520" width="100" height="60" as="geometry" />
        </mxCell>
        <mxCell id="oqaYQmrftcsxYt509nSq-6" value="" style="edgeStyle=orthogonalEdgeStyle;rounded=0;orthogonalLoop=1;jettySize=auto;html=1;" edge="1" parent="1" source="oqaYQmrftcsxYt509nSq-2" target="oqaYQmrftcsxYt509nSq-3">
          <mxGeometry relative="1" as="geometry" />
        </mxCell>
        <mxCell id="oqaYQmrftcsxYt509nSq-2" value="INICIO" style="strokeWidth=2;html=1;shape=mxgraph.flowchart.start_1;whiteSpace=wrap;" vertex="1" parent="1">
          <mxGeometry x="364" y="20" width="100" height="60" as="geometry" />
        </mxCell>
        <mxCell id="oqaYQmrftcsxYt509nSq-7" value="" style="edgeStyle=orthogonalEdgeStyle;rounded=0;orthogonalLoop=1;jettySize=auto;html=1;" edge="1" parent="1" source="oqaYQmrftcsxYt509nSq-3" target="oqaYQmrftcsxYt509nSq-4">
          <mxGeometry relative="1" as="geometry" />
        </mxCell>
        <mxCell id="oqaYQmrftcsxYt509nSq-3" value="COTAÇÃO DOLAR" style="shape=parallelogram;html=1;strokeWidth=2;perimeter=parallelogramPerimeter;whiteSpace=wrap;rounded=1;arcSize=12;size=0.23;" vertex="1" parent="1">
          <mxGeometry x="364" y="130" width="100" height="60" as="geometry" />
        </mxCell>
        <mxCell id="oqaYQmrftcsxYt509nSq-8" value="" style="edgeStyle=orthogonalEdgeStyle;rounded=0;orthogonalLoop=1;jettySize=auto;html=1;" edge="1" parent="1" source="oqaYQmrftcsxYt509nSq-4" target="oqaYQmrftcsxYt509nSq-5">
          <mxGeometry relative="1" as="geometry" />
        </mxCell>
        <mxCell id="oqaYQmrftcsxYt509nSq-4" value="VALOR&amp;nbsp;&lt;div&gt;DOLAR&lt;/div&gt;" style="shape=parallelogram;html=1;strokeWidth=2;perimeter=parallelogramPerimeter;whiteSpace=wrap;rounded=1;arcSize=12;size=0.23;" vertex="1" parent="1">
          <mxGeometry x="364" y="230" width="100" height="60" as="geometry" />
        </mxCell>
        <mxCell id="oqaYQmrftcsxYt509nSq-11" value="" style="edgeStyle=orthogonalEdgeStyle;rounded=0;orthogonalLoop=1;jettySize=auto;html=1;" edge="1" parent="1" source="oqaYQmrftcsxYt509nSq-5" target="oqaYQmrftcsxYt509nSq-10">
          <mxGeometry relative="1" as="geometry" />
        </mxCell>
        <mxCell id="oqaYQmrftcsxYt509nSq-5" value="&lt;font style=&quot;font-size: 11px;&quot;&gt;VALOR REAL = COTAÇÃO DOLAR * VALOR DOLAR&lt;/font&gt;" style="rounded=1;whiteSpace=wrap;html=1;absoluteArcSize=1;arcSize=14;strokeWidth=2;" vertex="1" parent="1">
          <mxGeometry x="319" y="330" width="190" height="40" as="geometry" />
        </mxCell>
        <mxCell id="oqaYQmrftcsxYt509nSq-12" value="" style="edgeStyle=orthogonalEdgeStyle;rounded=0;orthogonalLoop=1;jettySize=auto;html=1;" edge="1" parent="1" source="oqaYQmrftcsxYt509nSq-10" target="oqaYQmrftcsxYt509nSq-1">
          <mxGeometry relative="1" as="geometry" />
        </mxCell>
        <mxCell id="oqaYQmrftcsxYt509nSq-10" value="VALOR REAL" style="strokeWidth=2;html=1;shape=mxgraph.flowchart.display;whiteSpace=wrap;" vertex="1" parent="1">
          <mxGeometry x="364" y="420" width="100" height="60" as="geometry" />
        </mxCell>
      </root>
    </mxGraphModel>
  </diagram>
</mxfile>
